<svg xmlns="http://www.w3.org/2000/svg" viewBox="0 0 64 64" role="img" aria-labelledby="title desc">
  <title id="title">AccentIQ icon</title>
  <desc id="desc">A warm cream AccentIQ app icon with a terracotta accent mark and sound wave.</desc>
  <rect width="64" height="64" rx="16" fill="#fbf3e7"/>
  <path fill="#c76548" d="M49.7 9.9c1.5 1.1 1.8 3.2.8 4.7l-7.2 9.8c-1.1 1.5-3.2 1.8-4.7.8-1.5-1.1-1.8-3.2-.8-4.7L45 10.7c1.1-1.5 3.2-1.8 4.7-.8Z"/>
  <path fill="#2b2926" d="M18.6 48.5c-1.6 0-2.7-1.6-2.1-3.1l10.2-27.1c.4-.9 1.2-1.5 2.2-1.5h7.4c1 0 1.8.6 2.2 1.5l10.2 27.1c.6 1.5-.5 3.1-2.1 3.1H42c-1 0-1.9-.6-2.2-1.6l-1.5-4.3H26.9l-1.5 4.3c-.3.9-1.2 1.6-2.2 1.6h-4.6Zm10.8-13.2h6.4l-3.2-9.1-3.2 9.1Z"/>
  <path fill="#c76548" d="M20.9 52.7h23.2c1.3 0 2.4 1.1 2.4 2.4s-1.1 2.4-2.4 2.4H20.9c-1.3 0-2.4-1.1-2.4-2.4s1.1-2.4 2.4-2.4Z"/>
  <path fill="none" stroke="#c76548" stroke-linecap="round" stroke-width="3.2" d="M48.8 31.3c2 1.7 3.1 4.1 3.1 6.7s-1.1 5-3.1 6.7"/>
  <path fill="none" stroke="#dfb55c" stroke-linecap="round" stroke-width="3.2" d="M54 26.3c3.3 2.9 5.2 7.1 5.2 11.7S57.3 46.8 54 49.7"/>
</svg>
